/* XPM */
static char *_e8bb68206b4498eb675f65cc8cac44dxKc5TZMylq2WdveZ[] = {
/* columns rows colors chars-per-pixel */
"64 64 174 2 ",
"   c #1E1B1B",
".  c #221E1D",
"X  c #24201F",
"o  c #252120",
"O  c #282321",
"+  c #2F2825",
"@  c #2D2D2E",
"#  c #342B26",
"$  c #342D29",
"%  c #392F29",
"&  c #33312F",
"*  c #393029",
"=  c #2F2F30",
"-  c #342E30",
";  c #2F3031",
":  c #353232",
">  c #383634",
",  c #3E3935",
"<  c #373739",
"1  c #393739",
"2  c #3C3C3C",
"3  c #40362F",
"4  c #45392F",
"5  c #443B33",
"6  c #493E34",
"7  c #433E3B",
"8  c #4E4136",
"9  c #45413D",
"0  c #4A423A",
"q  c #534336",
"w  c #53463A",
"e  c #584739",
"r  c #53493E",
"t  c #5C4B3D",
"y  c #634F3F",
"u  c #65503F",
"i  c #3E3F42",
"p  c #513B53",
"a  c #571F7C",
"s  c #553C69",
"d  c #59287F",
"f  c #583176",
"g  c #5D337C",
"h  c #444444",
"j  c #4A4542",
"k  c #4C4945",
"l  c #464649",
"z  c #49454B",
"x  c #4B4B4B",
"c  c #554B42",
"v  c #584D42",
"b  c #554E4C",
"n  c #4E504C",
"m  c #5D5144",
"M  c #54514E",
"N  c #5F5549",
"B  c #4D4852",
"V  c #514B57",
"C  c #544B5B",
"Z  c #545454",
"A  c #575758",
"S  c #59555B",
"D  c #585858",
"F  c #5C5C5C",
"G  c #665240",
"H  c #695442",
"J  c #6E5946",
"K  c #655748",
"L  c #675949",
"P  c #6B5C4B",
"I  c #725C47",
"U  c #745E49",
"Y  c #665E59",
"T  c #5F605F",
"R  c #6F604E",
"E  c #74614D",
"W  c #79614C",
"Q  c #62605F",
"!  c #6A625B",
"~  c #746554",
"^  c #7B6752",
"/  c #7D6D5B",
"(  c #5D5364",
")  c #5D5B64",
"_  c #5D4471",
"`  c #604861",
"'  c #635E62",
"]  c #634776",
"[  c #5D6064",
"{  c #646361",
"}  c #6D6864",
"|  c #6A6968",
" . c #746C6A",
".. c #7D7166",
"X. c #6B6F74",
"o. c #746677",
"O. c #7B7878",
"+. c #7C7B7E",
"@. c #846D55",
"#. c #896F55",
"$. c #8A7057",
"%. c #867058",
"&. c #8C745A",
"*. c #90775C",
"=. c #92795E",
"-. c #997D5F",
";. c #82766B",
":. c #86786E",
">. c #927D65",
",. c #9B7E61",
"<. c #897C72",
"1. c #9D8163",
"2. c #8F8379",
"3. c #95867A",
"4. c #9C8A7B",
"5. c #A28465",
"6. c #A58867",
"7. c #A18769",
"8. c #A68969",
"9. c #AB8D6B",
"0. c #B08F6D",
"q. c #AF906D",
"w. c #B1916E",
"e. c #A38E73",
"r. c #A28D7C",
"t. c #A69075",
"y. c #A99276",
"u. c #AB9578",
"i. c #B49471",
"p. c #B69876",
"a. c #B99A77",
"s. c #BA9B77",
"d. c #B59C7D",
"f. c #BA9B78",
"g. c #BAA07F",
"h. c #C1A37F",
"j. c #5C2982",
"k. c #643286",
"l. c #6C5182",
"z. c #7A6E83",
"x. c #737985",
"c. c #827D8E",
"v. c #7F828C",
"b. c #7C8491",
"n. c #898889",
"m. c #9E8F82",
"M. c #8E969A",
"N. c #9B9898",
"B. c #A99685",
"V. c #B9A186",
"C. c #BEA691",
"Z. c #949DA8",
"A. c #A5A9B5",
"S. c #A8B2BC",
"D. c #C4A682",
"F. c #C5A986",
"G. c #C3A989",
"H. c #CBAE89",
"J. c #CBAE8A",
"K. c #CDAF8A",
"L. c #CCAF8B",
"P. c #CDB08C",
"I. c #CEB18C",
"U. c #C9B09B",
"Y. c #D2B691",
"T. c #D5B994",
"R. c #D6BA95",
"E. c #D6BB96",
"W. c #D7BB96",
"Q. c #D8BB96",
"!. c #D8BC96",
"~. c #D9BC97",
"^. c #DBBE98",
"/. c #AEBAC9",
/* pixels */
"o o X o X o X X X X X X X X X X o o o o o o o . o o . o o X X o . o . o o . o o X X X X X X X X . o o . X X X X X X o X o X o o ",
"o o o X o X X X . . .     .   .             . .   .   . .     . .   .     . .   . . .     . . . .   . .   . . . . X o o X o o o ",
"X o X o X X X X X X O X o o o o o o X X O o o o o o o o o o X X o o o o o o o o X X X X X X X o o o o o X o X X X X X X o X o X ",
"o X o o X . X $ 0 r m v v v v v v v v t v v v v v v v v v v v v v v v v v v v v v v v v v v v v v c v v v v v 0 $ X . X o o X o ",
"X o X X X . X 6 %.u.u.u.u.u.u.u.u.u.u.u.u.u.u.u.u.y.u.u.u.u.u.u.u.u.u.u.u.u.u.u.u.u.u.u.u.u.u.u.u.u.u.u.u.u.u.%.5 X . X X X o X ",
"o o X . .   . w t.E.~.E.E.E.E.E.~.E.E.E.E.~.E.E.E.~.Q.E.~.E.Q.E.T.E.E.E.E.E.E.E.E.T.!.E.Q.E.E.E.E.!.Q.E.Q.^.E.u.r X   X . o o o ",
"X X X X X X X r u.E.^.~.~.Q.~.~.!.!.!.!.~.!.E.~.Q.E.~.E.E.Q.E.~.Q.Q.E.^.Q.Q.^.E.Q.~.~.~.~.Q.Q.~.^.E.~.E.Q.^.~.u.v X . X X X X X ",
"X . X $ 0 r v / d.E.Q.Y.P.H.H.H.H.H.H.H.H.H.H.H.P.H.H.H.P.P.P.P.T.Q.E.Y.P.H.H.K.H.H.H.H.H.H.H.H.H.H.H.F.d.d.d.>.r * # # O X . X ",
"X X X 9 %.u.u.d.P.E.E.K.D.f.a.a.a.a.a.a.a.a.a.a.a.s.p.u.w.8.6.t.d.G.Y.P.h.a.a.a.a.a.a.a.a.a.a.a.a.s.a.9.&.@.@.W u e e 4 # X . X ",
"X   X r y.E.~.E.E.E.E.H.f.9.0.w.w.w.w.w.w.w.w.w.w.q.q.1.L r c m K / V.H.a.w.w.0.w.w.w.w.w.w.w.w.w.w.w.-.U y y y u u u q # . X X ",
"X   o r y.Q.^.~.E.E.E.H.a.w.9.w.q.w.q.w.9.w.w.q.w.9.-.E j i h 2 2 k ..u.a.w.q.w.w.9.0.w.w.w.w.w.w.w.0.-.U u y y u H u q % o . X ",
"X . . c t.E.~.Y.P.K.H.D.a.w.w.w.w.w.w.w.w.w.w.w.9.1.P 9 n Z x Z D M k ~ 7.9.w.w.w.w.w.w.w.w.w.w.w.w.0.5.#.@.W U H H u e # . X X ",
"X . X r y.E.Q.P.h.p.a.p.w.0.0.w.w.w.i.w.w.i.i.w.1.P j l x h 2 2 x Z x c L 1.9.w.w.w.i.w.w.i.w.w.w.w.w.9.5.5.1.*.U u y q # . X X ",
"X . X r e.T.~.K.a.w.w.w.w.w.w.w.i.w.q.w.w.q.w.q.1.P r 2 < 0 m m j k D h 0 *.q.w.w.w.w.w.w.w.w.i.w.w.0.w.w.i.w.5.W H u q % X . X ",
"X . X r y.T.~.K.a.w.9.w.w.w.w.w.w.w.i.w.i.q.i.q.q.1.E 7 7 E 1.1.L 2 x h 0 >.w.w.w.w.w.w.w.i.w.w.w.w.w.0.q.w.w.,.W u y q % X X X ",
"X   X r e.E.~.P.a.w.w.w.w.w.w.w.w.w.w.w.i.w.w.q.i.9.1.%.%.1.w.9.P > k 2 0 *.q.w.w.w.w.w.w.w.w.w.w.w.w.5.=.$.@.W y e q 4 # X . X ",
"X   X r t.E.Q.P.a.w.w.w.w.w.w.w.w.w.i.w.w.w.w.w.w.w.w.w.w.w.w.9.P < l 2 0 *.q.i.w.i.i.w.i.w.w.w.w.w.w.=.G 9 4 , * # # # . X X X ",
"X X X r t.E.E.P.a.w.w.w.w.w.w.w.w.w.w.w.i.w.w.w.w.w.w.w.w.w.9.1.L 1 h 2 0 =.q.q.w.w.w.w.w.w.w.i.w.w.w.$.4       X X X X X X X X ",
"X   X r t.T.~.P.a.w.0.w.w.w.w.w.w.w.w.w.w.w.w.w.i.w.q.q.q.q.1.L 0 h l , 0 >.q.i.w.w.w.i.w.i.w.w.w.w.w.$.6 X   X . X X X X X X X ",
"X . X r t.E.Q.P.a.w.w.w.w.w.w.w.w.w.i.w.w.i.w.w.w.w.w.6.&.^ L > : 2 2 j P 1.q.i.w.w.w.i.w.w.w.w.w.w.w.=.H 8 8 4 X X X X X X X X ",
"X . X r t.T.~.P.s.w.w.w.w.w.w.w.w.w.w.w.w.w.w.w.w.w.8.%.r > > ; : ; : N =.9.w.w.w.w.w.w.w.w.w.i.w.w.w.6.-.*.*.I 3 . . X X X X X ",
"X . X r t.E.~.K.s.w.w.w.w.w.w.w.w.w.w.w.w.w.w.w.w.8.@.c 2 2 h h h 2 2 0 P 1.q.w.w.w.w.w.i.w.w.w.w.w.0.0.w.w.w.&.6 X . . X X X X ",
"X . X r t.E.~.K.a.w.0.0.w.w.w.w.w.w.w.w.w.w.w.i.9.%.v < h n Z A D Z x i 9 R ,.w.w.w.w.i.i.w.w.w.w.w.w.w.w.w.w.&.6 X . X X X X X ",
"X   X r e.E.~.H.a.w.0.9.5.-.-.1.9.w.w.w.w.w.w.9.$.0 2 l n D F F F D Z x 2 , P 1.w.w.w.w.w.w.w.i.w.w.w.w.w.w.w.=.e * * * X X X X ",
"X . X r t.T.~.K.a.w.w.5.#.U U #.5.w.w.w.w.i.9.@.r : 1 x D F T [ T F D Z l ; > L 1.9.w.w.w.w.w.w.w.w.i.w.w.i.0.,.J e q 4 # X . X ",
"X . X r t.T.~.K.s.w.0.-.W u y W -.0.w.w.w.i.9.P @ : 2 z Z A D D D F D n i < ; 0 >.q.w.w.w.i.w.w.0.w.w.0.w.i.0.,.W u u e # . X X ",
"X . X r t.T.~.P.a.w.w.,.W u u W -.w.w.w.w.9.,.K , k h > l x x x x x x i 1 k 9 9 @.6.w.i.w.w.w.w.i.w.w.i.w.0.w.,.W u u e * X . X ",
"X   X r t.T.~.P.s.w.w.5.$.W W $.5.w.w.w.9.,.P 9 b ..! h < : : : : : : < M ..! 9 c @.9.i.w.w.w.i.w.i.i.0.w.i.w.,.W u u e # . X X ",
"X   o r t.E.~.K.s.w.0.9.5.1.1.5.0.w.w.w.w.*.9 k ..r.:.x ; @ : : : @ @ 2 ! 4.3.Y 2 L 9.i.w.w.i.w.w.w.i.w.w.w.w.,.@.u u q * . . X ",
"X   o r t.^.~.P.s.w.w.w.0.w.w.w.w.w.w.w.9.@.j / C.V.<.Z < < h x x i ; h } B.C.4.c K 1.9.w.w.0.w.i.w.i.w.w.i.w.,.U u u q # . . X ",
"o . X r t.E.E.K.s.w.w.w.w.w.w.w.w.9.w.9.@.r h ;.C.C.2.F x x A F D Z x n  .B.U.B.N 9 H ,.w.i.w.w.w.i.w.w.w.w.0.,.@.y u q * X X X ",
"o . X 5 / e.e.t.a.a.f.a.i.w.w.w.w.w.w.9.P & 7 } m.m.O.F A F F F F F D D | 3.r.:.M : 0 -.w.w.w.i.w.w.w.i.0.i.0.,.U y u q % X . X ",
"X X X + 6 0 0 R u.P.P.D.p.w.w.w.w.w.w.9.P : 2 Z F { { F F F F F [ F F T Q { Q D k < 9 =.q.w.w.w.w.w.i.w.w.w.w.-.W u y q * . . X ",
"X X X X       r t.~.^.P.s.w.q.w.w.w.w.9.P : h Z D F F F [ F Q [ F F F ) F F F Z x 2 0 *.q.w.w.w.i.w.i.w.w.w.w.1.@.u y e # . . X ",
"X X X X X   . r t.E.^.H.f.w.w.w.w.w.w.9.P 1 h x l l l x D Q { F { T F Z l l l j x 2 9 =.w.q.w.i.w.w.w.w.w.w.q.1.W u u q * X X X ",
"X X X # 0 r m ^ y.K.H.h.p.w.w.w.w.w.w.9.P < h x i : 1 x D F F F F F F n i : < l x 2 0 =.q.i.w.w.w.i.w.w.w.w.w.1.W u u e # X . X ",
"X X X 6 &.u.u.u.p.s.s.a.w.w.w.w.w.w.i.q.P : x x.x.l ' n.| D F Q { D F +.+.j ) b.[ 2 0 *.w.w.w.w.w.w.w.w.w.w.w.-.@.u u q # . X X ",
"X . X r t.~.~.P.s.w.w.w.w.w.w.w.w.w.w.9.P : x Z.S.S  .N.| Z F [ ) Z A n.N.b v./.X.< 9 =.w.w.w.w.w.q.q.q.w.w.w.1.U u u q # . . X ",
"X   X r t.^.~.K.a.0.0.0.w.w.w.w.w.w.w.9.P : l M.A.` ` z.' D F { T D S o.o.p c.S.| ; 0 =.w.w.w.w.w.q.w.q.w.w.q.1.@.y u q * . X X ",
"X   X r t.Q.^.H.p.w.w.w.w.w.w.w.w.w.w.9.R : i | z.g j.k.( F F ) F T ( ] j.d l.+.A : 0 =.w.w.w.w.w.w.q.q.5.1.-.$.u y u q % X . X ",
"X X X r t.E.E.P.s.w.q.w.w.w.w.i.w.w.w.w.&.m 7 l V f j.g ( Z z j h x F _ j.j.s x i 0 R 1.w.w.w.w.0.i.0.,.#.W W u u u u e # . . . ",
"X . X r t.E.~.P.s.w.w.w.w.w.w.w.w.w.w.w.9.%.9 > h B C ) D x : - $ 2 D ) ( Z x < : L 1.q.w.w.w.w.0.i.0.,.W u u y u u u q # . X . ",
"X   X r t.E.~.P.s.w.w.w.w.w.w.w.w.w.w.w.q.*.9 @ < h n D D Z z h h x D F Z k 2 @ ; P q.i.w.w.w.w.0.i.0.,.W u y y u u u e 3 . . o ",
"X . X r t.T.E.P.a.w.w.w.w.w.w.w.w.w.w.w.q.*.8 @ : < < h Z Z Z n Z Z Z x 2 < : ; & P 8.i.w.w.w.w.0.i.0.,.#.@.@.U U u u y # O . . ",
"X   X r t.E.~.P.s.w.w.w.w.w.w.w.w.w.w.u.q.=.0 < 2 ; = : 2 i i h 7 h h < : ; < 2 : P 9.w.w.w.w.w.0.w.w.0.6.,.,.-.@.u u 6 # . . . ",
"X . X r t.T.~.H.a.w.w.w.w.w.i.i.w.w.w.q.q.=.0 1 x i < < : : : : : : : : 1 < h h : P 9.w.w.w.w.w.w.0.0.0.w.w.i.,.@.u u e * . . . ",
"X . X r e.E.~.K.f.w.w.w.w.w.w.w.w.w.w.i.q.*.0 2 x x k 2 : 7 t m m 0 : > h l n l < P 8.q.w.w.w.w.w.0.0.w.w.w.0.,.u u u e 3 . . O ",
"X . X r t.E.~.K.f.w.w.w.w.i.w.w.w.w.q.i.q.*.0 2 n n n 2 & K 1.5.5.%.9 < l n Z h > m =.5.8.w.w.w.w.w.w.w.w.0.0.,.@.u u 6 # O . . ",
"X . . r t.Q.~.K.a.w.w.w.w.w.w.w.w.w.0.q.w.=.0 2 Z A Z h > P 9.w.q.=.0 1 x D Z l : q U #.5.w.w.w.w.w.w.w.w.w.w.1.W u u q # . . O ",
"X . X r t.T.~.P.a.w.w.w.w.9.w.w.i.w.w.i.q.=.0 2 Z F A l > P 9.w.w.=.0 1 n F F x : 5 y W ,.w.w.w.w.0.0.w.w.w.w.5.W u u q # O . . ",
"X . X r t.E.~.P.a.w.9.w.9.w.w.w.w.0.w.0.w.=.0 i F Q F l < P 9.w.q.&.0 2 Z F ) n : 5 y W ,.w.w.w.w.0.w.0.0.0.0.1.W u u e # . . O ",
"X   X r e.E.~.F.9.1.-.5.9.w.w.w.i.w.w.i.q.=.0 h Z F F x , P 6.9.1.@.9 h D T F x : w U #.5.w.w.w.w.0.0.0.5.,.,.$.W u u e # O . . ",
"X . X r y.E.~.g.*.U U #.5.w.w.w.w.w.0.0.w.,.I w h h l k m %.9.5.@.u e 0 l l h 9 v ^ ,.5.9.w.w.w.w.w.0.5.#.W W W u u u q # O . . ",
"X   X r u.^.^.g.#.u y W 1.w.w.w.w.w.i.i.i.w.,.U 9 , 7 v *.q.w.5.W u t r 9 , 7 r &.9.w.w.w.w.w.w.w.w.0.1.W u u u u u u q * . . O ",
"X . X r e.E.E.d.@.y u W -.w.w.w.0.0.0.0.w.w.9.-.@.@.@.&.6.q.q.-.W y u H W %.@.&.9.q.w.w.w.w.w.w.w.0.0.1.W u u u u u u q * . . X ",
"X X X 5 / e.e.>.W y u U $.-.1.-.,.,.,.,.,.,.,.&.1.-.1.-.-.1.-.@.u 8 q u W $.$.&.=.-.,.1.-.,.-.,.1.,.,.$.u u u u e e q 4 # O . X ",
"X X X + 6 0 w r t u u H U W W U U W U W W U @.@.W W W U W W I u 4 # # * , 4 4 e H W W U U W U U U W U U H u y e 4 * # # . X . X ",
"X X X X . . . # e u H u u u u H u H H u u H u u u H u u u u u q # X   X . . X # q y H H u H H u u H u u u H u q % . X X X X X X ",
"X X X X . . . # q y u y u u u u y y y y u u u u u u u y u u u q # X . X X     # q y y G y y y y u u y u u H y q # . . . X X X X ",
"X o X X X . . # 4 q q q 6 e 6 e q q q q e 6 e 6 q q q q q e q 4 # X . X X X X + 4 q q q q q q q 6 e q q q q q 4 # . . X X X O X ",
"o X o o . . o O # # # $ % % # # # # # # # # # $ # % # # # # # # X X X X X X X O + # # # # # # # % % # # # # % # O X X X X X X O ",
"o o o o o o o X . . o . . . . . . . . X . o . . . . . . X . X X X X X X X X X X X . o . X . . . . . . . . . . X X X X X X X X X ",
". . . . . . . . . . . . . . . . . . . . .   . . . . . . . . . . X . X . . X   X . . . . . . . . . . . . . . . . . . X X X X X X ",
"> : & : : : $ : : $ - : $ % : % : : $ & : : $ : $ : % : & & % : : & & & & : : & - : $ : : $ : - % : : % & & & & & & * : & * * * "
};
