/* XPM */
static char *result[] = {
/* columns rows colors chars-per-pixel */
"64 64 242 2 ",
"   c #0E0E0E",
".  c #11100F",
"X  c #141314",
"o  c #191716",
"O  c #181718",
"+  c #1A1718",
"@  c #1C1918",
"#  c #3A0F11",
"$  c #201B16",
"%  c #221E1D",
"&  c #381819",
"*  c #27211D",
"=  c #29221E",
"-  c #1B1F28",
";  c #331E29",
":  c #1C2233",
">  c #1D263B",
",  c #1C3B3B",
"<  c #242324",
"1  c #2A2624",
"2  c #2B2826",
"3  c #23262C",
"4  c #2D2B2B",
"5  c #342626",
"6  c #342C25",
"7  c #392C27",
"8  c #332E2C",
"9  c #3A2B2A",
"0  c #2A342A",
"q  c #383327",
"w  c #3D352D",
"e  c #292C33",
"r  c #3E2730",
"t  c #2A3736",
"y  c #353332",
"u  c #383635",
"i  c #3A3837",
"p  c #34363C",
"a  c #3C3A39",
"s  c #471819",
"d  c #5E1C1F",
"f  c #65191D",
"g  c #45361E",
"h  c #52361D",
"j  c #481F21",
"k  c #751B21",
"l  c #4A2422",
"z  c #5C2824",
"x  c #45362B",
"c  c #473A28",
"v  c #543C25",
"b  c #4A3A34",
"n  c #403D3C",
"m  c #513E32",
"M  c #553C3A",
"N  c #75302E",
"B  c #2D423D",
"V  c #384339",
"C  c #4C4329",
"Z  c #544426",
"A  c #5C4628",
"S  c #434C31",
"D  c #4C423B",
"F  c #544132",
"G  c #574A39",
"H  c #555235",
"J  c #575338",
"K  c #634A2A",
"L  c #64502D",
"P  c #634938",
"I  c #644D3A",
"U  c #764C34",
"Y  c #685635",
"T  c #745636",
"R  c #7B623F",
"E  c #1D3B42",
"W  c #222C44",
"Q  c #232E4B",
"!  c #26314E",
"~  c #363B40",
"^  c #293554",
"/  c #2C395C",
"(  c #2E3C61",
")  c #303E64",
"_  c #69364E",
"`  c #693654",
"'  c #7F3266",
"]  c #1D4648",
"[  c #1E4E51",
"{  c #254748",
"}  c #374846",
"|  c #3C4D4D",
" . c #39594F",
".. c #264959",
"X. c #265457",
"o. c #355352",
"O. c #3B615A",
"+. c #2E4866",
"@. c #334269",
"#. c #295F64",
"$. c #2A6265",
"%. c #276368",
"&. c #2B656B",
"*. c #356B73",
"=. c #444241",
"-. c #484746",
";. c #4B4847",
":. c #4D4A4A",
">. c #534E49",
",. c #575347",
"<. c #485757",
"1. c #565759",
"2. c #664C44",
"3. c #665747",
"4. c #745A48",
"5. c #714F55",
"6. c #58625E",
"7. c #67624E",
"8. c #7C6348",
"9. c #6B6457",
"0. c #7A6750",
"q. c #444F6A",
"w. c #485873",
"e. c #586565",
"r. c #487A75",
"t. c #666768",
"y. c #676868",
"u. c #6F6D6A",
"i. c #7D776E",
"p. c #717171",
"a. c #882728",
"s. c #903533",
"d. c #89433A",
"f. c #904F3A",
"g. c #895B3A",
"h. c #97613F",
"j. c #8F3C74",
"k. c #A13F7F",
"l. c #885547",
"z. c #A65957",
"x. c #866A4A",
"c. c #966547",
"v. c #93724D",
"b. c #826C52",
"n. c #8D6F50",
"m. c #8C7153",
"M. c #847359",
"N. c #927054",
"B. c #947556",
"V. c #9C7C5A",
"C. c #A17F5B",
"Z. c #AF7859",
"A. c #B07151",
"S. c #894A70",
"D. c #8D4778",
"F. c #897A68",
"G. c #997C63",
"H. c #A8736A",
"J. c #53847A",
"K. c #A3805C",
"L. c #A7865F",
"P. c #B9895E",
"I. c #9C8466",
"U. c #9E8668",
"Y. c #918871",
"T. c #A98A66",
"R. c #A48C6C",
"E. c #AB8F6F",
"W. c #B98C66",
"Q. c #A8957A",
"!. c #B39775",
"~. c #CD956D",
"^. c #C8A875",
"/. c #C3A27A",
"(. c #D8A67C",
"). c #CDB17B",
"_. c #E1AB7B",
"`. c #3E7E82",
"'. c #457E83",
"]. c #777B85",
"[. c #AA3E8A",
"{. c #B65D94",
"}. c #C65B9D",
"|. c #D054AD",
" X c #E45DBE",
".X c #CF6DAF",
"XX c #E060BC",
"oX c #E96FC7",
"OX c #3E8185",
"+X c #418487",
"@X c #428689",
"#X c #48868A",
"$X c #5B8884",
"%X c #6D8A89",
"&X c #689A9C",
"*X c #6CA9AC",
"=X c #74A7A9",
"-X c #71AEB0",
";X c #70AEB1",
":X c #939088",
">X c #949696",
",X c #A99B8C",
"<X c #94A49A",
"1X c #ACA594",
"2X c #9A9DA6",
"3X c #90ABAF",
"4X c #A8A8A7",
"5X c #B2AFA5",
"6X c #BDB6AD",
"7X c #B3B4B4",
"8X c #BBBCBC",
"9X c #C4AA87",
"0X c #CCAD83",
"qX c #CDB387",
"wX c #D2B287",
"eX c #D5B589",
"rX c #D9B58F",
"tX c #D9B98C",
"yX c #CAB793",
"uX c #D487BF",
"iX c #C8B8AC",
"pX c #D4C291",
"aX c #F4CD99",
"sX c #CFC7BC",
"dX c #F1CEA9",
"fX c #FEE3A6",
"gX c #F287D4",
"hX c #F2B3E1",
"jX c #9CC8CB",
"kX c #AAC9CA",
"lX c #C8C6C5",
"zX c #CBCBCB",
"xX c #D2D3CD",
"cX c #D7D7D6",
"vX c #E4D7D1",
"bX c #F4D0E9",
"nX c #D3E5E6",
"mX c #E2E1E1",
"MX c #FAECE2",
"NX c #EEF0EB",
"BX c #F7F5F4",
"VX c #FFFFFF",
/* pixels */
"@ @ @ @ @ @ @ @ @ @ @ @ @ @ @ @ O @ @ @ @ @ @ @ @ @ * @ - % % % - % % % - @ % @ @ @ @ @ @ @ O @ @ @ @ @ @ @ @ @ @ @ @ @ @ @ @ @ ",
"@ @ @ @ @ @ @ @ @ @ o o o o o @ o o o @ @ @ @ O < < 2 3 1 1 1 < 1 1 3 1 1 1 < - @ @ @ @ @ O o + + + + + o o o o @ @ @ @ @ @ @ @ ",
"@ @ @ @ @ @ O O o o o o o o o o o o o o @ % % * 4 4 y 4 8 4 4 8 4 8 4 4 8 e 8 1 * % @ o + o o o o o o o o o o X @ @ @ @ @ @ @ @ ",
"@ @ @ @ @ @ O * q w w w w w w w 8 1 * * < < 2 4 y =.=.a y u y u y y u u a =.D y e 1 1 < < * 1 q q x w w w w w 7 * O @ @ $ @ @ @ ",
"@ @ @ @ @ o o 7 8.R.R.G.I.I.G.M.2.8 * < < 4 8 n =.-.=.n i n a i a a a i a -.-.=.a y 2 1 * - 8 3.M.G.I.I.I.I.R.0.q o o @ @ @ @ @ ",
"@ @ @ @ o o o w I.eXwXwXwXwX!.3.w 2 4 4 8 u a =.-.D n a i i a a a u a a a n n -.=.a y y 4 1 1 w 3.!.wXwXeXeXeXI.w o o o @ @ @ @ ",
"@ @ @ o o X X w I.wXwXwX).!.0.i < 4 8 u a n =.:.:.} n i u i a u u u i i a a =.:.:.=.n a i 8 4 < u M.!./.wXtXeXR.w o o o @ @ @ @ ",
"@ @ @ * q w w G R.wX0X0XR.,.q 6 4 8 u p n -.:.:.:.:.n n i i u a i a i a a =.:.>.:.:.-.a i i 8 4 2 q ,.T.!.E.!.m.x % * * $ @ @ @ ",
"@ o o 7 8.R.I.R.9X0X).R.4.8 < 4 8 u a u n =.:.:.:.>.;.=.n n n a n n n a =.:.>.:.:.:.-.~ u i u r 4 < q 3.3.Y 4.I m x x w % + + @ ",
"@ o o u U.eXeXwX0X0XE.,.7 1 4 8 u i a a a n =.:.1.>.:.:.;.;.:.;.;.:.:.;.:.:.>.>.:.-.n a u n i u 8 2 1 2 q x b v F F F c = + + @ ",
"@ o o x I.wXwX0X0XwXR.b * 4 8 p i u u u a a a =.-.;.;.;.;.;.:.:.:.;.;.;.;.;.-.:.=.n i i p u u i u 8 4 * 1 x m m F F F x = + @ @ ",
"@ o o u I.wX0X0X/./.G.w % 4 i i p 8 8 u i u a n n ~ n n n n n n n n n n n n n n n i i a u 8 8 i a p 4 * 5 m I I F F F x = + @ @ ",
"@ o o w I.qXwX/.E.B.4.8 < 4 u u y 4 8 u a i i u i u u u u u u u u u u i i u y u i i i a y 8 e y y u 8 1 6 G 8.4.P F F x = o + @ ",
"@ @ o w I.wXwX/.B.F 6 1 4 4 4 4 8 y p a i a a a u 8 8 u a a u 8 8 u a a y 8 8 u i i a i i p y 8 8 4 4 3 3 q F x.I F F x = o + @ ",
"@ o o w I.wXqX/.b.q < 1 2 5 6 4 8 u i u u u a i y 4 4 y i u y r 9 8 p i u 8 4 u i a i i u i i 8 4 6 5 2 2 % x 4.I F F x = + @ @ ",
"@ o o w I.wXwX/.m.q @ 1 5 ; l 9 p i y 8 8 u a a y 8 8 p p 8 9 l l 9 8 u y e 4 u a i y 8 8 u i y 9 l & 5 3 % 5 G F c c 7 % + @ @ ",
"@ o o w I.wXwX/.m.G 6 2 5 s l x a a u 4 8 y i y y 5 5 8 8 5 j d d j 5 8 y r 9 y y p y 4 8 y a a u s s ; = * * 1 = * = % $ @ @ @ ",
"@ @ o w I.wXqX/.L.n.I l # s s 9 a a y 4 8 y p 4 5 j j r 9 j f f f d j 5 5 j j 5 4 u u 4 4 y p a x j s # & o o o o o @ O @ @ @ @ ",
"@ @ o w I.wXwX/.L.K.x.l # s s 9 u a y 4 4 y n b P d.d.2.2.U s.s.l.s.U 2.2.d.N 2.D a y 4 4 u u u r s s # & X o o o @ @ @ @ @ @ @ ",
"@ o o w I.wXqX/.T.K.l.l # s s 5 8 p u 4 1 3 M B.~.(.0X0X0X(.wX0X(.(.(.0X0X(.(.~.B.D 4 1 4 y u y 5 s s # & 5 6 5 % o o @ @ @ @ @ ",
"@ o o w I.wXwX/.T.K.x.h s d z 5 4 y a M D 8 D G./.0XwXwXpXaXfXfXfXfXaXtX0XqX0X/.G.D u b D a y 4 5 z z s h Y 8.I 5 o + @ @ @ @ @ ",
"@ o X w I.wX0X/.T.K.x.Z v l.l.x 3 4 D B.G.>.=.,.9.9.9.9.Y.pXfXfXfXfXpXY.9.9.9.9.,.=.,.G.V.D 4 3 x l.f.h v x.L.8.q o o + @ @ @ @ ",
"@ o o w I.wXwX/.L.K.x.Z K A.A.b 1 < b G.E.F.y.t.y.y.t.t.i.!.eXqXqXqX!.i.t.t.t.t.t.t.F.E.V.b < 3 M z.A.A A x.L.8.7 X o + + @ @ @ ",
"@ o o w I.wXqX/.P.K.x.Z A A.A.b 3 < 8 >.i.4X8X8X7X8X8XiX5XJ.9.9.9.9.i.4X8X8X7X8X8X8X4Xi.,.8 < < m A.A.A Z n.L.x.w * = % $ @ @ @ ",
"$ o o w I.wXwX/.L.K.v.A A c.g.b 1 < 1 p t.8XmXzX8X8XzXmX8Xy.n a } ~ y.8XmXzX8X8XlXmX8Xt.~ ; < 3 c l.h.L Y v.C.n.G x x 7 % + + $ ",
"@ @ o w I.wXwX/.T.K.K.8.A A c 7 3 % 1 p p.8XzX>Xp.p.>XzX8Xy.a p u n y.8XzX>Xp.p.>XzX8Xt.p 3 % < w Z L 8.v.C.K.n.I m m x = $ + + ",
"@ o o w I.qXwX/.T.I.R.U.9.J C 6 5 6 q a t.8XzX>Xp.p.>XlX8Xt.=.,.>.D e.8XzX:Xp.p.>XlX8Xt.n y 7 6 7 c Y v.K.C.K.n.I F F c = + + $ ",
"@ o o w I.wXwX/.E.Y.4XiX5X:X9.b g K I -.e.8XmXzX8X8XzXmX7X1.>.E.R.>.1.7XmXzXlX8XzXmX8Xt.M P K c C R m.V.K.K.K.n.I F F c = + + + ",
"@ o o w I.wXwX/.R.:X4XzXcX4XF.9.L T T 2.i.,X8X8X8X8X8X8X2Xu.M.pXpXM.u.2X8X8X8X8X8X8X2XF.T T L L L v.K.K.K.C.K.n.I F F x = + + @ ",
"@ @ o w I.eXeX/.R.:X4XzXcX4X>X>XY.J K c.N.u.t.t.t.t.t.t.i.!.pXaXfXpX!.i.t.t.t.t.t.t.u.N.c.K K 8.v.K.K.K.K.K.K.v.I F F x = o + @ ",
"@ @ o w U.tXeX/.E.Y.4XlXzX7X7X7X:XH c g.c.4.5.3.9.9.3.;.2.W.eXwX(.(.W.3.M 3.9.7.3.3.4.c.g.C Z x.K.K.K.K.K.C.K.n.I F F x = + @ @ ",
"@ o o 7 0.U.I.U.T.T.,XiXlXzXlX7X%X=.0 C U c.Z.W./.9XE.N N N s.d.d.d.s.z _ E.qX!.W.Z.c.T C y V 0.K.V.K.K.K.K.K.n.I F F x = + + @ ",
"@ O o * 7 u x G G.9X9X4X8XmXxX>Xe.B , q Z g.A.~._.aX_.h.a.a.k k k k a.s.h._.aX_.~.A.h.Z q 0 B 7.m.K.K.K.K.K.K.n.I F F x * o @ @ ",
"@ @ @ @ o X X q I.eX9X,X7XvXkXe.{ ] , t q Z T h.A.~.~.~.A.s.a.a.a.a.s.A.~.~.~.A.h.L Z q t , ] B ,.b.K.K.K.K.K.n.I F F x * o o @ ",
"@ @ @ o o X X q I.eX0X,X>X5X%X ., [ X.p w q g L f.h.A.P.Z.f.a.N a.a.s.Z.P.A.f.f.K g q u B X.{ ] B 7.b.K.K.K.K.n.I F F x = o @ @ ",
"@ @ O % 6 w w ,.T./.9X!.F.6. .{ [ %.&.| S q q c h h K K K z h h h h v K K K A h C q q a  .&.&.[ ] B ,.b.K.K.K.n.I F F x = o @ @ ",
"@ o o q 0.U.U.U.T.T.T.T.0.V , [ &.@X#X6.=.a i V Z H J J A J L L L L L H L H S S V V a =.<.$X@X&.] , V M.K.K.K.n.I F F x = O O @ ",
"@ @ o w U.rXeX/.T.V.C.C.0.V , $.OX;X=Xe.=.n -.O.J.%X<X<X,XT.P.P.P.W.W.,X,X<X&XJ.O.-.=.=.e.=X;X#X#.] V 0.K.L.K.v.I F F x * o @ @ ",
"@ o o w R.rXrXyX!.T.V.n.7.} [ &.#X=X&Xe.-.}  .&.OX*XjXxXvXdXdXaXaXaXdXvXkXjX;XOX&.| =.=.e.=X-X@X$.[ } 7.m.K.K.m.I F F x = @ @ @ ",
"@ o o w !.xXvXxXiX!.x.>.} $.&.%.&.+X#X1.=.a t [ %.OX*XnXBXMXMXMXMXMXMXBXnX;XOX%.{ p i =.<.'.@X%.X.&.$.} H 0.b.8.I F F x = O @ @ ",
"@ + o w Q.xXcXmXsX/.0.V [ J.@X&.%.OXr.<.=.-.o.X.%.`.-XnXVXVXVXVXVXVXVXVXnX*X`.%.X. .:.=.<.'.OX&.&.@X`.{ t D I G F F F c % + + @ ",
"@ + o w Q.iXzXcXxX!.0.V X.&X;XOX@X;X&X| ~ p.$X*.`.*XjXNXVXVXVXVXVXVXVXVXNXkX*XOX*.$Xp.} -.&X;XOX@X-X&Xo.t x m m F F F x = + + $ ",
"@ o o w Q.6XlXcXsXY.7.B o.&X;XOXOX&X%X} | $X*X`.`.*XjXnXBXVXVXVXVXVXVXBXnXjX*XOX`.&X$X{ } ].&X`.@X;X&XX.t u b C F F F c = + + @ ",
"@ @ o w Q.6XlXmX6X6.B , X.OXOX%.X.| } B X.*.`.$.#.`.=XkXmXBXVXVXVXVXBXmXkX*X`.$.%.`.`...{ } | X.&.OXOX[ , B V H F F F x = + @ @ ",
"O o o x Y.iXiXcX4X<.B  .J.#XJ.O.B 0 e ] &.@X@X&.%.`.&X3XlXmXBXBXBXBXmXlX3X&XOX$.$.OX@X&.{ , 0 B O.J.#XJ. .B V Y P F m x = + @ @ ",
"@ o o u U.yXiXiX<XH S U.yXpX/.x.H t E #.@X;X*X+XOX;X3X3X4XlXcXcXcXcXlX4X2X3X*X@X+X*X;X#X$., t J b./.pXyXY.H S R I F F x % + + @ ",
"@ o + w I.eXyXiX<XL Y ).fXfXeXv.F t ] $.#X-X-X@XOX;X3X%X].>X2X2X2X2X>X].%X-X-X@X@X-X-X#X$.E t A h.).fXfX).Y Z T I F F c = + @ @ ",
"@ @ O y I.eXyX6X:XH Y ).fXsX1XR q 0 , [ &.@X#X$.&.@X'.w.q.w.w.q.q.w.w.q.w.#X#X&.&.@X@X&.[ , 0 q R ~.aXfX).Y A 8.I F m x = + @ @ ",
"@ @ o w I.wXyXiXY.2.I L.tXxX5X8.C V V E [ &.&...X.%.&.@.( / ^ Q Q ^ ( ( @.*.&.....&.&.[ E } V C Y K.^.^.T.T Y 8.Y C F x = + O @ ",
"@ o o w I.wXeX9XH.5._ P M.sXxXR.x.x.7.} W ..+.( +.+.+.) ( ( / Q Q ^ ( ( ( +.+.+.( +.+.W t 3.m.n.g.Y L L Y x.v.m.I F F x = + @ @ ",
"@ o o w I.wXwX^.G.5.' 2.F.xXmX9XZ.K.b.p W ! ( ) ( ( ( ( / ^ ^ Q Q ! ^ / / / ) ) ) / ^ > p 0.C.C.K.H Z Z Y v.K.n.I F F x = + @ @ ",
"@ o o w I.wXwX!.N.' ' >XuXNXvX}.k.H.b.p > W ^ ) ) ( ( ! Q W > > > W W Q ! / ) @.@.^ W > p b.V.T.K.K.g.R x.x.n.x.G F F c = + @ @ ",
"@ o o w I.wXwX!.5.` [.uXbXbXhX.X}.Z.n.>.p W ! +.@.) / ! W > > e e > > W ! / ) @.) ! W t ;.n.C.C.K.K.K.v.Y Y I G G F F x * + + @ ",
"@ o o w R.eXeX!.2.` u.uXgXgXoXXX}.H.V.n.3.~ W / ) ) / ^ W > ~ 3.a 3 > W ! / ) ) / W ~ 3.n.V.C.C.K.K.L.m.I D m F m F F x = + + @ ",
"@ o o w I.tXeXE.5._ S..XoXoX X X.XH.K.K.0.y : W / ^ ^ W : - u 4.F : : : W ! ^ ^ W : p 0.T.C.K.K.K.L.L.m.I m F F F F F x = + @ @ ",
"@ @ o q 0.I.R.m.2._ [..XgXoX X X|.H.n.n.2.1 O - 3 3 3 - - X 1 G x O X - 3 3 1 3 - O 1 2.n.n.v.n.R x.m.R J F F v m c c 7 % + @ @ ",
"@ @ o * 7 u x x M ` D..XoXXX|.XX}.l.2.I m $   @ < < < % o   $ c < .   O < < < 3 @ . @ c I I I I I I I P G F F c 5 % % % $ + + $ ",
"@ @ @ o o o + % b ` j.|.XX|.|.|.}.` m M x o X < e e e 3 o   $ 7 $   X O < 3 e e 1 X o x F F F F F F F F M F F x % + + + $ + @ @ ",
"@ @ @ @ o o o % b _ j.{.[.[.[.|.{.2.m m c $ $ < 3 2 1 @ o @ = 7 % . . O - < 3 2 * + % c F F F F F F m m F F F x = o + + @ @ @ @ ",
"@ @ @ @ @ o + % 9 b _ k.[.j.j.[.k._ x x x 7 5 o X X X . o = q 6 % o X X   X X X o = x x x x x x x c x x c c c 7 % $ + $ @ @ @ @ ",
"@ @ @ @ + + % % $ ; r ' j.` ` ' ` j 1 < * * * X   X .   X * * * $ @ o .         X % = % * * * 1 % = % % = = = % $ @ @ @ @ + @ @ ",
"@ @ @ @ + $ + + + + + ; ; ; ; ; ; % O O o o o o X X X o o o o o @ @ @ o X o o X o + + + + + + + $ + $ $ + + + + + @ @ @ @ $ @ @ ",
"@ @ @ @ + + $ + + + + + + + X X @ @ @ O o O @ o @ @ @ o @ @ o @ @ @ @ @ @ @ @ o + + + + + + + + $ + + + @ + @ @ + @ @ @ @ @ @ @ ",
"@ @ @ @ $ + + + + + + + + + + - @ @ @ @ @ @ @ @ @ @ @ @ @ @ @ @ @ @ @ @ @ @ @ @ + + % + $ + $ + + + + $ @ @ @ @ @ @ @ @ @ @ $ @ "
};
