/* XPM */
static char *tile031661451975[] = {
/* columns rows colors chars-per-pixel */
"64 64 204 2 ",
"   c #252120",
".  c #24201F",
"X  c #231F1E",
"o  c #221E1E",
"O  c #211E1D",
"+  c #201D1D",
"@  c #23201F",
"#  c #2F2926",
"$  c #453D35",
"%  c #50473D",
"&  c #50463C",
"*  c #4F463C",
"=  c #8B7963",
"-  c #AF987B",
";  c #AE977A",
":  c #AC9579",
">  c #1F1C1C",
",  c #1E1A1B",
"<  c #4E453B",
"1  c #AE987B",
"2  c #DFC29B",
"3  c #DDC09A",
"4  c #DBBE98",
"5  c #DBBF99",
"6  c #DCBF99",
"7  c #E1C39C",
"8  c #B0997C",
"9  c #50463D",
"0  c #211D1D",
"q  c #1C191A",
"w  c #4D433A",
"e  c #AD967A",
"r  c #DDC19A",
"t  c #D9BD97",
"y  c #DABE98",
"u  c #E0C39C",
"i  c #AF997C",
"p  c #706252",
"a  c #B69E80",
"s  c #DABD98",
"d  c #D9BC97",
"f  c #D4B893",
"g  c #D0B38E",
"h  c #CDB08C",
"j  c #CEB18C",
"k  c #D7BB96",
"l  c #C9AD89",
"z  c #C0A584",
"x  c #BDA382",
"c  c #BEA483",
"v  c #9B856B",
"b  c #55493D",
"n  c #312A25",
"m  c #332B26",
"M  c #312926",
"N  c #282321",
"B  c #CCB28F",
"V  c #D8BC97",
"C  c #C1A37F",
"Z  c #BA9B77",
"A  c #BA9B78",
"S  c #BB9C78",
"D  c #BC9D79",
"F  c #AD906F",
"G  c #8F775D",
"H  c #816A55",
"J  c #826B55",
"K  c #77624E",
"L  c #614F3F",
"P  c #564538",
"I  c #574639",
"U  c #4A3D32",
"Y  c #B0906D",
"T  c #B1916E",
"R  c #D9BD98",
"E  c #B2926E",
"W  c #B2926F",
"Q  c #9E8162",
"!  c #765E49",
"~  c #614C3D",
"^  c #614D3D",
"/  c #644F3F",
"(  c #675240",
")  c #695342",
"_  c #6A5442",
"`  c #584739",
"'  c #352D28",
"]  c #231F1F",
"[  c #CEB18D",
"{  c #B3926F",
"}  c #765E4A",
"|  c #624D3D",
" . c #665140",
".. c #C7A985",
"X. c #B89976",
"o. c #CFB28D",
"O. c #B3936F",
"+. c #A48666",
"@. c #866D54",
"#. c #78604B",
"$. c #78614B",
"%. c #745D49",
"&. c #6B5543",
"*. c #675241",
"=. c #685241",
"-. c #342C27",
";. c #B49471",
":. c #AD8E6C",
">. c #A08264",
",. c #A08364",
"<. c #92765B",
"1. c #B49470",
"2. c #B79672",
"3. c #A38565",
"4. c #7A624D",
"5. c #675140",
"6. c #B59470",
"7. c #B89772",
"8. c #A38566",
"9. c #7B634D",
"0. c #685341",
"q. c #A98B6A",
"w. c #987D60",
"e. c #90765C",
"r. c #90775C",
"t. c #826B53",
"y. c #645141",
"u. c #605041",
"i. c #443A31",
"p. c #453B32",
"a. c #423830",
"s. c #39302A",
"d. c #352C27",
"f. c #B49370",
"g. c #8E755B",
"h. c #1C191B",
"j. c #1D1A1B",
"k. c #221F1E",
"l. c #453A31",
"z. c #463B32",
"x. c #3E352E",
"c. c #2D2724",
"v. c #91785D",
"b. c #76624D",
"n. c #92785D",
"m. c #473C33",
"M. c #211E1E",
"N. c #B39370",
"B. c #B69571",
"V. c #91775C",
"C. c #9F8163",
"Z. c #93795D",
"A. c #534539",
"S. c #322A26",
"D. c #332B27",
"F. c #765F4A",
"G. c #9C7F61",
"H. c #6D5846",
"J. c #554438",
"K. c #7A624C",
"L. c #695341",
"P. c #79614C",
"I. c #9F8263",
"U. c #DEC19B",
"Y. c #BB9B78",
"T. c #B2916E",
"R. c #E0C29C",
"E. c #DEC29B",
"W. c #D1B38E",
"Q. c #B08F6D",
"!. c #AD977A",
"~. c #AF9779",
"^. c #B79A78",
"/. c #4F453B",
"(. c #4D443B",
"). c #6E5F4F",
"_. c #D1B48E",
"`. c #1B1819",
"'. c #191718",
"]. c #4B4239",
"[. c #AB9579",
"{. c #DCBF9A",
"}. c #B59571",
"|. c #A18364",
" X c #624D3E",
".X c #624E3E",
"XX c #64503F",
"oX c #634E3E",
"OX c #79614B",
"+X c #655140",
"@X c #A28465",
"#X c #B79671",
"$X c #8E7359",
"%X c #685443",
"&X c #544437",
"*X c #634F3F",
"=X c #5A493A",
"-X c #584639",
";X c #453930",
":X c #463C32",
">X c #41352E",
",X c #332C27",
"<X c #574638",
"1X c white",
/* pixels */
"                                                                                                                                ",
"              . X o o o o o o o o o o o o o o o o o o o o o o o o o o o o o o o o o o o o o o o o o o o o o o X .               ",
"              . O + + + + + + + + + + + + + + + + + + + + + + + + + + + + + + + + + + + + + + + + + + + + + + O .               ",
"          . @ # $ % & * * * * * * * * * * * * * * * * * * * * * * * * * * * * * * * * * * * * * * * * * * & % $ # @ .           ",
"          X O $ = - ; : : : : : : : : : : : : : : : : : : : : : : : : : : : : : : : : : : : : : : : : : : ; - = $ O X           ",
"      . X > , < 1 2 3 4 5 5 5 5 5 5 5 5 5 5 5 5 5 5 5 5 5 5 5 5 4 4 4 4 5 5 5 5 5 5 5 5 5 5 5 5 5 5 5 5 6 2 7 8 9 > 0 . .       ",
"      @ O , q w e r 6 t y y y y y y y y y y y y y y y y y y y y t t t t y y y y y y y y y y y y y y y y 5 2 u i & > + @ .       ",
"  . . # $ < w p a s d f g h h j j j j j j j j j j j j j j h h g f k k f g h h j j j j j j j j j j j j l z x c v b n m M N . .   ",
"  X O $ = 1 e a B V V g C Z Z A A A A A A A A A A A A A A Z Z C g V V g C Z Z A A A A A A A A A A S D F G H J K L P I U M @ .   ",
"  o + % - 2 r s V V V j Z Y Y T T T T T T T T T T T T T T Y Y Z j R R j Z Y Y T T T T T T T T T T E W Q ! ~ ^ / ( ) _ ` ' ] .   ",
"  o + & ; 3 6 d V V V [ A Y Y T T T T T T T T T T T T T T Y Y A [ R R [ A Y Y T T T T T T T T T T W { Q } ^ | /  .) ) I ' ] .   ",
"  o + * : 4 t f g j [ ..X.T T W W W W W W W W W W W W W W T T X...o.o...X.T T W W W W W W W W W W W O.+.@.#.$.%.&.*.=.I -.] .   ",
"  o + * : 5 y g C Z A X.;.T T W W W W W W W W W W W W W W T T ;.X.S S X.;.T T W W W W W W W W W W W W :.+.>.,.<.%. .*.I -.] .   ",
"  o + * : 5 y h Z Y Y T T W W W W W W W W W W W W W W W W W W T T T T T T W W W W W W W W W W W W T T W 1.2.2.3.4.5.=.I ' ] .   ",
"  o + * : 5 y h Z Y Y T T W W W W W W W W W W W W W W W W W W T T T T T T W W W W W W W W W W W W T T { 6.2.7.8.9.*.0.` ' ] .   ",
"  o + * : 5 y j A T T W W W W W W W W W W W W W W W W W W W W W W W W W W W W W W W W W W W W W W W W q.w.e.r.t.y.P I U M @ .   ",
"  o + * : 5 y j A T T W W W W W W W W W W W W W W W W W W W W W W W W W W W W W W W W W W W W W W O.1.w.u.i.p.a.s.-.d.M N . .   ",
"  o + * : 5 y j A T T W W W W W W W W W W W W W W W W W W W W W W W W W W W W W W W W W W W W W W f.6.g.a.h.j.+ k.] ] @ .       ",
"  o + * : 5 y j A T T W W W W W W W W W W W W W W W W W W W W W W W W W W W W W W W W W W W W W W f.6.g.a.h.j.+ k.. . . .       ",
"  o + * : 5 y j A T T W W W W W W W W W W W W W W W W W W W W W W W W W W W W W W W W W W W W W W O.1.w.u.l.z.x.c.. .           ",
"  o + * : 5 y j A T T W W W W W W W W W W W W W W W W W W W W W W W W W W W W W W W W W W W W W W W W q.w.r.v.b.x.o ]           ",
"  o + * : 5 y j A T T W W { { W W T T W W W W W W W W W W W W W W W W W W W W W W W W W W W W W W T T W 1.2.7.n.m.+ M.. .       ",
"  o + * : 5 y j A T T W O.N.N.O.W T T W W W W W W W W W W W W W W W W W W W W W W W W W W W W W W T T W O.B.2.V.z.+ M.@ .       ",
"  o + * : 5 y j A T T :.+.C.C.+.:.W W W W W W W W W W W W W W W W W W W W W W W W W W W W W W W W W W W W N.1.Z.A.S.D.M N . .   ",
"  o + * : 5 y j A T W +.@.F.F.@.+.O.W W W W W W W W W W W W W W W W W W W W W W W W W W W W W W W W W W W O.f.G.H.J.P U M @ .   ",
"  o + * : 5 y j A E { C.F.^ ^ F.C.N.{ W W W W W W W W W W W W W W W W W W W W W W W W W W W W W W W W W W { N.>.K.*.L.` ' ] .   ",
"  o + * : 5 y j A E { C.F.^ ^ F.C.N.{ W W W W W W W W W W W W W W W W W W W W W W W W W W W W W W W W W W { N.>.P.5.=.I ' ] .   ",
"  o + * : 5 y j A T W +.@.F.F.@.+.O.W W W W W W W W W W W W W W W W W W W W W W W W W W W W W W W W W W W { N.I.P. .*.I -.] .   ",
"  o + * : 5 y j A T T :.+.C.C.+.:.W W W W W W W W W W W W W W W W W W W W W W W W W W W W W W W W W W W W { N.I.P. .*.I -.] .   ",
"  o + & ; U.3 o.Y.Y Y T.{ N.N.O.W T T W W W W W W W W W W W W W W W W W W W W W W W W W W W W W W W W W W { N.I.P. .*.I -.] .   ",
"  o + % - R.E.W.S Q.Y T W O.{ W W T T W W W W W W W W W W W W W W W W W W W W W W W W W W W W W W W W W W { N.I.P. .*.I -.] .   ",
"  X O $ = 1 !.~.^.S S X.;.T T W W W W W W W W W W W W W W W W W W W W W W W W W W W W W W W W W W W W W W { N.I.P. .*.I -.] .   ",
"  . . # $ /.(.).~._.g ..X.T T W W W W W W W W W W W W W W W W W W W W W W W W W W W W W W W W W W W W W W { N.I.P. .*.I -.] .   ",
"      X > `.'.].[.3 {.o.S T T W W W W W W W W W W W W W W W W W W W W W W W W W W W W W W W W W W W W W W { N.I.P. .*.I -.] .   ",
"      X > `.'.].[.3 {.o.S T T W W W W W W W W W W W W W W W W W W W W W W W W W W W W W W W W W W W W W W { N.I.P. .*.I -.] .   ",
"  . . # $ /.(.).~._.g ..X.T T W W W W W W W W W W W W W W W W W W W W W W W W W W W W W W W W W W W W W W { N.I.P. .*.I -.] .   ",
"  X O $ = 1 !.~.^.S S X.;.T T W W W W W W W W W W W W W W W W W W W W W W W W W W W W W W W W W W W W W W { N.I.P. .*.I -.] .   ",
"  o + % - R.E.W.S Q.Y T T W W W W W W W W W W W W W W W W W W W W W W W W W W W W W W W W W W W W T T W W f.1.,.P. .*.I -.] .   ",
"  o + & ; U.3 o.Y.Y Y T T W W W W W W W W W W W W W W W W W W W W W W W W W W W W W W W W W W W W T T W O.1.}.|.P. .*.I -.] .   ",
"  o + * : 5 y j A T T W W W W W W W W W W W W W W W W W W W W W W W W W W W W W W W W W W W W W W W W :.+.>.,.<.%. .*.I -.] .   ",
"  o + * : 5 y j A T T W W W W W W W W W W W W W W W W W W W W W W W W W W W W W W W W W W W W W W W O.+.@.#.$.%.&.*.=.I -.] .   ",
"  o + * : 5 y j A T T W W W W W W W W W W W W W W W W W W W W W W W W W W W W W W W W W W W W W W { N.C.F. X.XXX .=.0.I -.] .   ",
"  o + * : 5 y j A T T W W W W W W W W W W W W W W W W W W W W W W W W W W W W W W W W W W W W W W { N.C.F. X.XXX .=.0.I -.] .   ",
"  o + * : 5 y j A T T W W W W W W W W W W W W W W W W W W W W W W W W W W W W W W W W W W W W W W W O.+.@.#.$.%.&.*.=.I -.] .   ",
"  o + * : 5 y j A T T W W W W W W W W W W W W W W W W W W W W W W W W W W W W W W W W W W W W W W W W :.+.>.,.<.%. .*.I -.] .   ",
"  o + * : 5 y j A T T W W W W W W W W W W W W W W W W W W W W W W W W W W T T W W { { W W T T W W T T W O.1.}.|.P. .*.I -.] .   ",
"  o + * : 5 y j A T T W W W W W W W W W W W W W W W W W W W W W W W W W W T T W O.N.N.O.W T T W W T T W W f.1.,.P. .*.I -.] .   ",
"  o + * : 5 y j A T T W W W W W W W W W W W W W W W W W W W W W W W W W W W W :.+.C.C.+.:.W W W W W W W W { N.I.P. .*.I -.] .   ",
"  o + * : 5 y j A T T W W W W W W W W W W W W W W W W W W W W W W W W W W W O.+.@.F.F.@.+.O.W W W W W W W { N.I.P. .*.I -.] .   ",
"  o + * : 5 y j S E W W W T T W W W W W W W W W W W W W W T T W W { { W W { N.C.F.^ ^ F.C.N.{ W W T T W W f.1.,.P. .*.I -.] .   ",
"  o + * : 5 y j D W { O.W T T W W W W W W W W W W W W W W T T W O.N.N.O.W { N.C.F.^ ^ F.C.N.{ W W T T W O.1.}.|.P. .*.I -.] .   ",
"  o + * : 5 y l F Q Q +.:.W W W W W W W W W W W W W W W W W W :.+.C.C.+.:.O.O.+.@.F.F.@.+.O.W W W W W :.+.>.,.<.%. .*.I -.] .   ",
"  o + * : 6 5 z G ! } @.+.O.W W W W W W W W W W W W W W W W O.+.@.F.F.@.+.O.O.:.+.C.C.+.:.W W W W W O.+.@.#.$.%.&.*.=.I -.] .   ",
"  o + & ; 2 2 x H ~ ^ #.>.1.f.{ { { { { { { { { { { { { { f.1.,.$.oXoXOX|.}.6.f.1.1.1.1.O.{ { { { f.1.>.#.oX/ +X*.) ) I ' ] .   ",
"  o + % - 7 u c J ^ | $.,.}.1.N.N.N.N.N.N.N.N.N.N.N.N.N.N.1.}.|.P./ / K.@X#XB.6.1.1.1.1.f.N.N.N.N.1.}.,.$./ XX .*.) _ ` ' ] .   ",
"  X O $ = 8 i v K / / %.<.|.,.I.I.I.I.I.I.I.I.I.I.I.I.I.I.,.|.$X%X&X&Xy.t.V.r.Z.G.>.>.I.I.I.I.I.I.,.|.<.%.+X .*X=XI -XU M @ .   ",
"  . . # $ 9 & b L (  .&.%.P.P.P.P.P.P.P.P.P.P.P.P.P.P.P.P.K.K.%X;Xm D.s.a.:Xz.A.H.K.P.P.P.P.P.P.P.P.P.%.&.*.*.=X>X,X-.M N . .   ",
"      @ O > > n P ) ) *. . . . . . . . . . . . . . . . . .5.*.P D.M.k.X o + + S.J.*.5. . . . . . . . . .*.) ) I ,XM.k.@ .       ",
"      . X 0 + m I _ ) =.*.*.*.*.*.*.*.*.*.*.*.*.*.*.*.*.*.=.L.<X-.k.] @ X M.M.D.P L.=.*.*.*.*.*.*.*.*.*.=.) _ -X-.k.k.. .       ",
"          . @ M U ` I I I I I I I I I I I I I I I I I I I I ` U M @ .     . @ M U ` I I I I I I I I I I I I ` U M @ .           ",
"          . . N M ' ' -.-.-.-.-.-.-.-.-.-.-.-.-.-.-.-.-.-.' ' M N . .     . . N M ' ' -.-.-.-.-.-.-.-.-.-.' ' M N . .           ",
"              . @ ] ] ] ] ] ] ] ] ] ] ] ] ] ] ] ] ] ] ] ] ] ] @ .             . @ ] ] ] ] ] ] ] ] ] ] ] ] ] ] @ .               ",
"              . . . . . . . . . . . . . . . . . . . . . . . . . .             . . . . . . . . . . . . . . . . . .               ",
"                                                                                                                                "
};
