/* XPM */
static char *tile_leave_1_1661450026[] = {
/* columns rows colors chars-per-pixel */
"64 64 184 2 ",
"   c #010000",
".  c #080503",
"X  c #0D0905",
"o  c #120B06",
"O  c #140D08",
"+  c #181007",
"@  c #1C140C",
"#  c #14100B",
"$  c #191718",
"%  c #1E1A1B",
"&  c #20160D",
"*  c #2A1A0C",
"=  c #25160A",
"-  c #391C08",
";  c #341F0D",
":  c #221B12",
">  c #221E1E",
",  c #281E13",
"<  c #301F10",
"1  c #37210F",
"2  c #24201F",
"3  c #2E251B",
"4  c #2F2112",
"5  c #392513",
"6  c #3C2915",
"7  c #352618",
"8  c #252120",
"9  c #292321",
"0  c #2F2926",
"q  c #332B27",
"w  c #3A2E20",
"e  c #352D28",
"r  c #3C3021",
"t  c #3C332C",
"y  c #49260E",
"u  c #49280F",
"i  c #43240C",
"p  c #422C16",
"a  c #4C2B11",
"s  c #432D19",
"d  c #422710",
"f  c #512E12",
"g  c #473119",
"h  c #4D331B",
"j  c #533215",
"k  c #593415",
"l  c #5B3817",
"z  c #53361C",
"x  c #5A3618",
"c  c #54391D",
"v  c #5A3C1E",
"b  c #633C1A",
"n  c #683F1B",
"m  c #483827",
"M  c #473928",
"N  c #4B3B2A",
"B  c #433526",
"V  c #5B3E24",
"C  c #503E29",
"Z  c #543A23",
"A  c #453B33",
"S  c #4A3D32",
"D  c #66411E",
"F  c #6B431F",
"G  c #5E4020",
"H  c #5A432C",
"J  c #4F463C",
"K  c #554432",
"L  c #594834",
"P  c #564639",
"I  c #584739",
"U  c #59493A",
"Y  c #634423",
"T  c #6E4620",
"R  c #6A4927",
"E  c #67492A",
"W  c #6C4C2A",
"Q  c #724720",
"!  c #744B23",
"~  c #794E24",
"^  c #6E502E",
"/  c #7B5025",
"(  c #7D552C",
")  c #75512D",
"_  c #644D34",
"`  c #624E3D",
"'  c #6F5133",
"]  c #645039",
"[  c #68533A",
"{  c #6F5A3F",
"}  c #725230",
"|  c #7B5834",
" . c #614F40",
".. c #665241",
"X. c #695342",
"o. c #6E5945",
"O. c #6E5F4F",
"+. c #715B41",
"@. c #755E49",
"#. c #75624E",
"$. c #79614C",
"%. c #7A6246",
"&. c #756858",
"*. c #706252",
"=. c #805327",
"-. c #83552A",
";. c #85592D",
":. c #8A5C2D",
">. c #855B32",
",. c #8B5E31",
"<. c #93602E",
"1. c #8E6133",
"2. c #8C6338",
"3. c #936434",
"4. c #986531",
"5. c #956837",
"6. c #9B6A35",
"7. c #90693F",
"8. c #9C6C3B",
"9. c #9F703E",
"0. c #A26D36",
"q. c #A26E3A",
"w. c #A3703C",
"e. c #A9743C",
"r. c #8A6644",
"t. c #83694C",
"y. c #996D41",
"u. c #836C54",
"i. c #8C7151",
"p. c #8F765C",
"a. c #91765C",
"s. c #93795D",
"d. c #9F7E5C",
"f. c #997957",
"g. c #A47442",
"h. c #A87643",
"j. c #AC7945",
"k. c #AA7B4B",
"l. c #B17C43",
"z. c #B27F49",
"x. c #A27A54",
"c. c #8B7963",
"v. c #997E60",
"b. c #B5814B",
"n. c #BA854D",
"m. c #BE884F",
"M. c #B38450",
"N. c #B98753",
"B. c #BB8851",
"V. c #9F8263",
"C. c #9C846A",
"Z. c #A28465",
"A. c #A58865",
"S. c #AC8D6C",
"D. c #B28E66",
"F. c #B08F6D",
"G. c #AD906F",
"H. c #B2926F",
"J. c #AC9579",
"K. c #AF987B",
"L. c #B49470",
"P. c #B89772",
"I. c #B99A77",
"U. c #B49A7A",
"Y. c #BA9B78",
"T. c #C18C54",
"R. c #C59059",
"E. c #CB9357",
"W. c #C1A37F",
"Q. c #D9AD7F",
"!. c #B69E80",
"~. c #BDA383",
"^. c #C0A584",
"/. c #C7A985",
"(. c #CBAE8B",
"). c #CEB18C",
"_. c #D0B38E",
"`. c #D5B994",
"'. c #D9BD97",
"]. c #DBBF99",
"[. c #E9BB87",
"{. c #DEC19B",
"}. c #E0C39C",
"|. c #EECAA2",
/* pixels */
"8 8 8 8 8 8 8 8 8 8 8 8 8 8 8 8 8 8 8 8 8 8 8 8 8 8 8 8 8 8 8 8 8 8 8 8 8 8 8 8 8 8 8 8 8 8 8 8 8 8 8 8 8 8 8 8 8 8 8 8 8 8 8 8 ",
"8 8 8 8 8 8 8 8 > 8 8 > % 8 8 % > 8 > > > > 8 8 % 8 % 8 8 8 % 8 8 > > > 8 % > 8 2 2 > > > > > > > > > > > > 2 2 2 8 8 8 8 8 8 8 ",
"8 8       8 2 2 % 8 % 8 % > % > 8 % % % % 8 % % %       > % % 8 % % > > % > % > 2 % % % % 2 % 2 2 % % 2 > > % % 2 8 8 8 8 8 8 8 ",
"8 8       8 8 0 A J J J J J J J J J J J J J J J P       J J J J J J J J J J J J J J J J J J J J J J J J J J J J 0 > 8 8 8 8 8 8 ",
"8   Q.Q.  2 > A c.K.J.J.J.J.J.J.J.J.J.J.J.J.J.J.  ).).. L.J.J.J.J.J.J.J.J.J.J.J.J.J.J.J.J.J.J.J.J.J.J.J.J.J.K.c.J > 2 8 8 8 8 8 ",
"8   %._ &   % J K.}.].].].].].].].].].].].].].].. %._ &   ].].].'.].].'.].].].].'.{.].].'.'.{.'.'.{.'.{.{.{.{.K.J % > 2 2 8 8 8 ",
"8   @ & %.C   J J.{.].'.].].].].].].'.].].].{.].  @ & %.C   ].].'.'.'.'.'.].].].{.'.'.'.'.{.'.'.'.{.'.'.{.{.{.K.J $ % 2 2 8 8 8 ",
"8   & & %.K   *.!.].'.`._.(.).).).).).).).).).).  & & %.K   (._.`.'.'.`._._.(.).).).).).).).).).).).).(.~.~.~.C.P 0 q 0 9 2 2 8 ",
"8 >   & & : @             Y.          Y.Y.Y.Y.Y.    & & @ @       .   ).W.Y.P.Y.Y.Y.Y.Y.Y.Y.Y.Y.Y.Y.Y.J.p.u.u.@.` P I S q > 8 8 ",
"8 > >   t.[.L     T Q ! !   ! ! ! ! !           ! !   t.[.K     T ! D   Y.H.H.H.H.S.H.H.H.G.H.H.H.H.L.d.@.`  ...X.X.X.U e 8 > 8 ",
"8 >   !     c.i.    j T / =.4.8.8.w.:.:.:.;.=.=.=./ ~ X   p.s.    ! Q .   G.G.H.H.F.H.H.H.H.H.H.H.H.H.d.@. .` ..[ X.X.P e 8 8 8 ",
"8 >   !     v.i.    f T / =.4.8.8.q.<.,.:.;.=.=.=./ ~ o   a.s.    ! Q     H.H.H.H.H.H.H.H.H.H.H.H.H.L.A.u.@.@.@.X.X.X.J q > 2 8 ",
"8 > >   !   4 t.. * * h E >.8.w.e.l.m.E.T.T.b.j.5.=.! b   * s.  @ . =.+ l   H.H.H.H.H.H.H.H.H.H.H.H.H.S.A.v.Z.a.@.....I q > 8 8 ",
"8 >   ! =.=.O O f p p h G 2.b.j.6.<.4.0.e.j.h.g.3./ n k a     @ Q ! ;.p l   H.H.H.H.H.H.H.H.H.H.H.H.H.H.L.P.P.Z.$...X.P e 8 > 8 ",
"8 >   ~ 6.0.0.:.;.>.,.,.5.j.n.b.b.l.j.e.e.g.8.w.8.5.3.1.>.( ! ! / 6 V 5 a   H.H.H.H.H.H.H.H.H.H.H.F.F.H.L.P.P.Z.$.X...I e > 8 8 ",
"8 >   ~ 6.0.0.;.;.>.,.,.5.j.n.b.b.l.j.h.h.g.g.y.5.5.3.1.2.( ! ! / 6 v 6 u   H.H.H.H.H.H.H.H.H.H.L.H.H.S.v.p.p.u...P P S q 2 2 8 ",
"8 > %     o 6 c W } } } } } } W _ ^ W E Y E ) ) W R Y v 6 5 5 h 6 ! b x . H.H.H.H.H.H.L.H.H.H.H.H.L.L.v. .A A A e e e e 8 2 2 8 ",
"8 > > J   x j j j x x x l l b l l f j         u a a f f j j j x f a f       H.H.H.H.H.H.H.H.H.L.H.L.L.p.A % $ > > > > 2 > 8 8 8 ",
"8 > > J J.                            H.H.H.H.                        H N 3   H.H.L.H.H.L.H.H.H.F.L.L.p.A $ % > > 2 2 2 2 8 8 8 ",
"8 > > J J.                            H.H.H.H.                        H N 3   H.H.G.H.H.H.H.H.H.L.L.L.s. .A A t 9 2 2 8 8 8 8 8 ",
"8 > % J J.].].).Y.S.H.  o X O 3   H.H.H.L.H.H.H.H.H.H.H.H.H.H.H.L.L.  @ o o :   H.H.H.H.H.H.H.H.H.H.H.S.v.p.s.#.B > > 8 8 8 8 8 ",
"8 > > J J.].].).Y.H.H.H.  B L M o           H.H.H.        H.H.H.        +.A.K o           H.H.H.L.F.F.L.L.P.P.a.A > > > 2 8 8 8 ",
"8 > > J J.].].).Y.H.H.H.  B L M o           H.H.H.        H.H.H.        +.A.K o           H.H.H.H.H.F.H.H.L.P.a.A 8 > > 2 8 8 8 ",
"8 > > J J.].'.).Y.H.H.S.Z.  N ^.&.    ! Q !       ! ! ! !       ! ! ! !   _ |.&.    ! ! ! . H.H.L.F.L.H.H.L.L.s.P 0 e e 9 2 2 8 ",
"8 > > J J.'.'.).U.H.H.A.  !     _ C.* o j x x T ~ / / =.! ! T Q Q Q Q T F     ] ~.@   ! ! O . H.H.H.L.H.L.L.P.v.o.P P S 0 2 2 8 ",
"8 > > J J.{.'.).Y.L.L.V.@.  !   @ o . = 5 5 p h E ( ( 4.4.<.-.=./ ~ ! b j y   O @     . :.6 D . H.L.F.H.F.L.L.Z.@...X.I e > 2 8 ",
"8 > % P J.'.'.).Y.H.H.V.$.  !   @ o . = 5 5 p h W ( -.4.4.<.-.=.! ~ Q b j y   O @     . :.6 T   L.H.L.H.L.H.L.v.@.X.X.P e 2 2 8 ",
"8 8 % J J.{.'.).Y.H.G.A.  / / / . . ; ; V | r.y.g.j.j.l.l.l.l.w.8.j.j.j.3.~ F O .   ~ 6.0./ D . H.H.F.L.H.H.P.Z.$.X.X.P e > 2 8 ",
"8 > > J J.{.{.).Y.F.H.S.  :.4.4.=.b j j D >.7.y.g.k.M.N.N.B.B.b.k.j.j.j.8.3.:.3.=.=.:.T :.,.T   H.H.H.H.H.L.L.v.@.....I e > 8 8 ",
"8 8 > J J.{.{.).Y.F.F.H.H.  * g h c c v c c c z Z Y G c c c c c c c c v Y R R c s h p ! ~ T o H.H.H.H.H.H.H.H.v.@.....P q > 2 8 ",
"8 8 % J K.{.{._.Y.F.H.G.H.  * g h Z c v c c c h c Y G c c c c c z c c v Y R R c s h s ! ~ F o L.H.L.H.H.H.L.P.d.@.X.X.I e > 8 8 ",
"8 % 2 A c.K.K.J.I.Y.Y.I.L.H.  j a     5 a a u a a a j       c b n n b         l f f k l l       H.H.H.H.H.L.L.Z.@.X.X.I e > 2 8 ",
"8 > 8 0 A J J o.J._._./.Y.S.H.    H.H.                H.H.H.          H.H.H.H.            N O 3   H.H.H.H.H.L.V.%...X.I e > 8 8 ",
"8 8 8 8 % $ $ J J.{.{.).Y.H.H.H.H.H.H.H.L.  @ $.3   H.H.H.H.H.H.H.H.H.H.H.L.H.H.L.H.H.H.  o L m   H.H.H.H.H.L.Z.@...X.P e 8 8 8 ",
"8 8 8 8 % $ $ J J.{.{.).Y.H.H.H.H.H.H.H.L.  @ t.3   H.H.H.H.H.H.H.H.H.H.H.H.H.H.G.L.L.L.  o I m   H.H.H.H.H.H.V.$.....P e > > 2 ",
"8 8 8 0 A J J O.K.).)./.P.H.H.H.H.L.L.H.H.H.    _ $.          H.H.H.          H.L.L.          o.t.            V.$.....P e 8 2 2 ",
"8 8 % A c.J.J.K.I.Y.Y.Y.L.H.G.H.H.H.H.H.H.H.H.    U (.&   ! !       ! ! ! Q !       ! ! ! ! !    .(.@   Q ! ~   @.....I q 2 2 2 ",
"8 % 8 J U.}.{._.Y.G.F.H.H.H.H.H.H.H.H.L.L.H.  !   : & #.N   j z / :.:.,.,.,.,.3.1.;.=.~ T T T   @ @ #.N   b ~ .   ..X.P q > 2 2 ",
"8 8 % J J.}.].).Y.H.H.H.H.H.H.H.L.H.H.H.G.H.  !   @ & #.N   j z / :.:.3.,.,.,.2.1.>.=.! T T T   @ @ #.N   b ~ .   ..X.P e 2 2 2 ",
"8 % 8 J J.].].).Y.S.H.H.H.H.H.H.G.H.H.H.L.L.L.  !   t.P.O - - i k =.<.4.4.4.<.w.q.g.g.8.y.>.T k   L s.  s l n @ a   X.P e 2 2 2 ",
"8 8 % J J.{.'.).Y.F.H.H.H.H.H.H.H.H.H.H.L.H.. 3.3.1.@ @ p D 2.8.E.E.b.z.j.j.e.h.w.q.4.;.5.,.=.! z .   i i f b g x . X.P e > > 2 ",
"8 % 8 J J.{.'.).Y.H.H.H.H.H.H.H.H.H.H.H.H.H.  :.5.j.k.j.k.k.k.M.T.R.R.T.T.T.m.B.b.j.h.g.1.,.;.;.( / D k k 6 z p x   X.P e > > 8 ",
"8 % > J J.{.'.).Y.F.G.H.H.H.H.H.H.L.H.H.G.L.. :.5.j.j.h.k.k.k.b.T.R.R.T.T.B.n.B.b.j.h.g.1.,.;.;.( ( n k k d h p x   X.I e 8 2 8 ",
"8 8 % J J.'.{.).Y.H.H.H.H.H.H.H.H.H.H.H.H.H.H.. * 5 6 6 6 p h Y W ! R Y G v v h g s 6 s s s p g g 1 + o . y y j . ..X.P e > 2 8 ",
"8 > > J J.{.'.).Y.F.H.H.H.H.H.H.H.H.H.H.H.H.H.H.  a j f a a a u y y y         i i i y a a z           i i u j       ..I e > > 8 ",
"8 > % J J.'.'.).Y.H.H.H.H.L.H.H.H.H.L.H.H.H.H.L.H.                      H.H.H.              H.H.L.G.H.        @ < @   P e   2 8 ",
"8 > % J J.{.'.).Y.H.H.L.H.H.H.H.H.H.H.H.L.H.H.H.H.                      H.H.H.              H.H.H.H.H.        @ < @   P q   2 8 ",
"8 > % J J.{.'.).Y.H.S.H.H.H.H.G.L.H.H.H.H.H.H.H.H.H.H.H.H.H.H.  H r.=     H.H.S.A.V.V.    H.H.H.H.H.H.H.H.H.  Z f.L ,     V   . ",
"8 > > J J.`.{.(.U.G.H.H.H.H.H.H.H.H.H.H.H.H.H.H.H.H.H.H.H.H.L.L.  = 1 7 7     Z.u.@.  o.  L.H.H.H.H.H.H.L.L.L.  7   7       w   ",
"8 > > J J.{.{.(.Y.G.H.H.H.G.H.H.H.H.H.H.H.H.H.L.H.H.H.H.H.L.    .     X s r..   . . w M   L.H.H.H.H.H.H.L.        X s r..   w   ",
"8 > > J J.{.{.(.Y.L.L.H.H.H.H.H.H.L.H.H.H.H.H.H.H.H.H.H.L.S.      .   o s r..     . w M   L.H.H.H.H.G.H.L.    .   X s r..   w   ",
"8 > % J J.`.{.(.G.V.V.A.G.H.H.H.H.H.H.H.H.H.H.H.H.H.H.H.L.L.  _ 7 : N   K } . @ 1 V B # A.L.H.H.H.H.H.S.  ] 6 : N . C ' . V B   ",
"8 > > J J.{.{.~.a.@.@.u.A.H.H.H.L.L.H.H.H.H.H.H.H.H.L.H.L.H.. o.[ @ . . r N   H Z x.t.. F.H.H.H.H.H.H.Z.. { ] @ . . w C   x.t.. ",
"8 > > J K.{.{.~.u.` ` $.V.H.H.H.L.L.L.H.H.L.L.L.L.L.L.L.H.L.. i.i.[ { F.V.X     .   . H.L.L.H.H.H.H.H.Z.. i.i.[ { H.x.X     . 2 ",
"8 > > J K.{.}.~.u.U _ #.V.P.P.H.P.L.L.P.L.H.P.L.L.P.L.I.L.P.. p.i.] { D.x.X           H.P.L.L.L.L.H.P.V.. i.i.] { D.d.X .   . > ",
"8 8 > A c.K.!.C.$...] @.a.Z.Z.V.v.Z.v.Z.v.v.v.d.v.v.v.v.v.d.v..   . X .     a.s.v.Z.Z.Z.A.v.v.d.Z.Z.Z.a.@.    . X       0 2 2 > ",
"8 8 8 0 A J P P  ...X.X.@.@.$.$.@.@.$.@.$.$.$.$.$.@.$.@.$.$.$...M q q e A A A P @.$.$.@.$.$.@.$.$.@.$.@.X.X.X.U A q q 0 9 2 2 8 ",
"8 8 8 > 8 % > 0 P X.X.X.......X.....X.X...X.X.X.X...X.........I q > 8 % > % % q S X.X.X...X.......[ X.` X.X.X.P q % 2 2 2 2 8 8 ",
"8 8 8 8 8 > > 0 P X.X.X...X...X.X...X.X.X...X.X.X...[ ..X.X.X.I q 8 8 > > > 8 q S o.X.X.X...X.X.X...X...X.X.X.I q > > 2 2 8 8 8 ",
"8 8 8 8 8 8 2 q S P P I P I P P I I I P P I S I P P P I P P P S 0 8 8 8 8 > 8 0 S I P P S  .S  .P P P I P P P S q 2 2 8 8 8 8 8 ",
"8 8 8 8 8 2 2 9 0 e e e e e e q e e q e e e e e e e e 0 e e e q 8 2 2 8 8 8 8 8 0 e e e e e e e e e e q e e e q 9 2 2 8 8 8 8 8 ",
"8 8 8 8 8 8 8 2 2 2 2 2 > 2 > > > 2 > > > > > 2 2 2 > 2 8 > > 2 8 8 8 8 8 8 8 8 2 2 > 8 > 2 > 2 2 2 > 8 > 2 > 2 2 8 8 8 8 8 8 8 ",
"8 8 8 8 8 8 8 2 2 2 2 2 2 2 2 2 2 2 2 2 2 2 2 2 2 2 2 2 2 2 2 2 2 8 8 8 8 8 8 2 2 2 2 2 2 2 2 2 2 2 8 > 2 2 2 2 2 8 8 8 8 8 8 8 ",
"8 8 8 8 8 8 8 8 8 2 8 8 8 2 2 2 8 8 8 8 8 8 8 8 8 8 8 2 8 8 8 8 8 8 8 8 8 8 8 8 8 8 8 8 2 2 2 9 2 2 2 2 8 8 8 8 8 8 8 8 8 8 8 8 "
};
