/* XPM */
static char *title011661440258[] = {
/* columns rows colors chars-per-pixel */
"64 64 50 1 ",
"  c #252120",
". c #262322",
"X c #2B2727",
"o c #2A2827",
"O c #2C2A2A",
"+ c #323131",
"@ c #343231",
"# c #353637",
"$ c #383535",
"% c #3A3938",
"& c #3F3B3C",
"* c #3B3D3E",
"= c #403E3F",
"- c #3D3F41",
"; c #3F4143",
": c #424445",
"> c #414446",
", c #434749",
"< c #454748",
"1 c #45484A",
"2 c #494C4E",
"3 c #4B4E50",
"4 c #524F51",
"5 c #4F5154",
"6 c #545453",
"7 c #515455",
"8 c #555758",
"9 c #55585B",
"0 c #595B5B",
"q c #5B5D5E",
"w c #5D5F5F",
"e c #5B5D60",
"r c #605D60",
"t c #616363",
"y c #646565",
"u c #666767",
"i c #67666A",
"p c #68696B",
"a c #6B6C6D",
"s c #6E6E70",
"d c #737175",
"f c #767678",
"g c #7A777C",
"h c #7B7A7E",
"j c #7B7A7F",
"k c #7D7C81",
"l c #838286",
"z c #868489",
"x c #8B898F",
"c c #8E8C92",
/* pixels */
"                                                                ",
"                                                                ",
"                                                                ",
"       X$&&&&&&&&&&&&&&&&&&&&&&&&&&&&&&&%=========$====$X       ",
"       $rdddddddddddddddddddddddddddddddddddddddssdddddr$       ",
"       &dccccccccccccccccccccccccccccccccccccccccccccccd=       ",
"       &dccccccccccccccccccccccccccccccccccccccccccccccd=       ",
"   X$&&4gccxzlllllllllllkjkkklllllllllllllllllllllllgkgi=XXX    ",
"   $wddjzcczfsssssssssspe880ussdasssssssssssssssssspe993==*#X   ",
"   %dcccccclsyyyyyyyyyyq3<<4ryyyyyyyyyyyyyyyyyyyyyyq311,<<,*X   ",
"   =dcccccclsyyyyyyyyyyq3,<2rryyyyyyyyyyyyyyyyyyyyye3,<1<<,*O   ",
"   =dccczlljayyyyyyyyyyw7346ruyyyyyyyyyyyyyyyyyyyyye7323<<,-O   ",
"   =dcczfssayyyyyyyyyyytewqwruyyyyyyyyyyyyyyyyyyyyyteeq81,,*O   ",
"   =dcclsyyyyyyyyyyyyyyyyyyyyyyyyyyyyyyyyyyyyyyyyyyyyyyq3,,*O   ",
"   =dcclsyyyyyyyyyyyyyyyyyyyyyyyyyyyyyyyyyyyyyyyyyyyyyte3,,*O   ",
"   =dcclsyyyyyyyyyyyyyyyyyyyyyyyyyyyyyyyyyyyyyyyyyyyyyye3,,-O   ",
"   =scclsyyyyyyyyyyyyyyyyyyyyyyyyyyyyyyyyyyyyyyyyyyyyyyq21,*O   ",
"   =scclsyyyyyyyyyyyyyyyyyyyyyyyyyyyyyyyyyyyyyyyyyyyyyyq2<,*O   ",
"   $dcclsyyyyyyyyyyyyyyyyyyyyyyyyyyyyyyyyyyyyyyyyyyyyyyq5,,*O   ",
"   =dcclsyyyyyyyyyyyyyyyyyyyyyyyyyyyyyyyyyyyyyyyyyyyyyyq2,,*O   ",
"   =dcclsyyyyyyyyyyyyyyyyyyyyyyyyyyyyyyyyyyyyyyyyyyyyyyq2,,*O   ",
"   =dcclsyyyyyyyyyyyyyyyyyyyyyyyyyyyyyyyyyyyyyyyyyyyyyyq5,,*O   ",
"   =dcclsyyyyyyyyyyyyyyyyyyyyyyyyyyyyyyyyyyyyyyyyyyyyyyq2,,*O   ",
"   =dcclsyyyyyyyyyyyyyyyyyyyyyyyyyyyyyyyyyytwqqqqqqetyyw3,,*O   ",
"   =dccliuyyyyyyyyyyyyyyyyyyyyyyyyyyyyyyyyyw73333337eyyq3,,*O   ",
"   =dccldryyyyyyyyyyyyyyyyyyyyyyyyyyyyyyyyyq3,,,,,,3wyyq3,,*O   ",
"   =dcclsyyyyyyyyyyyyyyyyyyyyyyyyyyyyyyyyyyq3,,,,,,3qyyq3,,*O   ",
"   =dcclsyyyyyyyyyyyyyyyyyyyyyyyyyyyyyyyyyyw73333337wyyq3,,*O   ",
"   =rzclsyyyyyyyyyyyyyyyyyyyyyyyyyyyyyyyyyytwqqqqqqwtyyq3,,*O   ",
"   =dcclsyyyyyyyyyyyyyyyyyyyyyyyyyyyyyyyyyyyyyyyyyyyyyyq3,,*O   ",
"   =dcclsyyyyyyyyyyyyyyyyyyyyyyyyyyyyyyyyyyyyyyyyyyyyyyq3,,*O   ",
"   =dcclsyyyyyyyyyyyyyyyyyyyyyyyyyyyyyyyyyyyyyyyyyyyyyyq3,,*O   ",
"   &dcclsyyyyyyyyyyyyyyyyyyyyyyyyyyyyyyyyyyyyyyyyyyyyyyq3,,*O   ",
"   &dcclsyyyyyyyyyyyyyyyyyyyyyyyyyyyyyyyyyyyyyyyyyyyyyyq3,,*O   ",
"   &dcclsyyyyyyyyyyyyyyyyyyyyyyyyyyyyyyyyyyyyyyyyyyyyyyq3,,*O   ",
"   &dcclsyyyyyyyyyyyyyyyyyyyyyyyyyyyyyyyyyyyyyyyyyyyyyyq3,,*O   ",
"   &dcclsyyyyyyyyyyyyyyyyyyyyyyyyyyyyyyyyyyyyyyyyyyyyyyq3,,*O   ",
"   &dcclsyyyyyyyyyyyyyyyyyyyyyyyyyyyyyyyyyyyyyyyyyyyyyyq3,,*O   ",
"   &dcclsyyyyyyyyyyyyyyyyyyyyyyyyyyyyyyyyyyyyyyyyyyyyyyq3,,*O   ",
"   &dcclsyyyyyyyyyyyyyyyyyyyyyyyyyyyyyyyyyyyyyyyyyyyyyyq3,,*O   ",
"   &dcclsyyyyyyyyyyyyyyyyyyyyyyyyyyyyyyyyyyyyyyyyyyyyyyq3,,*O   ",
"   &dcclsyyyyyyyyyyyyyyyyyyyyyyyyyyyyyyyyyyyyyyyyyyyyyyq3,,*O   ",
"   &dcclsyyyyyyyyyyyyyyyyyyyyyyyyyyyyyyyyyyyyyyyyyyyyyyq3,,*O   ",
"   &dcclsyyyyyyyyyyyyyyyyyyyyyyyyyyyyyyyyyyyyyyyyyyyyyyq3,,*O   ",
"   &dcclsyyyyyyyyyyyyyyyyyyyyyyyyyyyyyyyyyyyyyyyyyyyyyyq3,,*O   ",
"   &dcclsyyyyyyyyyyyyyyyyyyyyyyyyyyyyyyyyyyyyyyyyyyyyyyq3,,*O   ",
"   &dcclsyyyyyyyyyyyyyyyyyyyyyyyyyyyyyyyyyyyyyyyyyyyyyyq3,,*O   ",
"   &dcclsyyyyyytwqqwtyyyyyyyyyyyyyyyyyyyyyyyyyyyyyyyyyyq3,,*O   ",
"   &dcclstyyyyyw7337wyyyyyyyyyyyyyyyyyyyyyyyyyyyyyyyyyyq3,,*O   ",
"   &dcclsyyyyytw3,,3qyyyyyyyyyyyyyyyyyyyyyyyyyyyyyyyyyyq3,,*O   ",
"   &dcclstyyyyyw3,,3qyyyyyyyyyyyyyyyyyyyyyyyyyyyyyyyyyyq3,,*O   ",
"   &dcclpwwrtytw7337wyyyyyyyyyyyyyyyyyyyyyyyyyyyyyytwqq82,,*O   ",
"   %dccke337wyytwqqwtyyyyyyyyyyyyyyyyyyyyyyyyyyyyyyw73321,,*O   ",
"   =dcch9,<3wyyyyyyyyyyyyyyyyyyyyyyyyyyyyyyyyyyyyyyq3,,,,,,*O   ",
"   =dccg9<<2qyyyyyyyyyyyyyyyyyyyyyyyyyyyyyyyyyyyyyyq3,,,,,,*O   ",
"   #rddi3,<<76680qqqqqqqqqqqqqqqqqqqqqqqqqqqqqqqqqq82,,>;**#o   ",
"   X@==-,1,-#@@%<33333333333333333333333333333333322,,,;+OOo    ",
"       O-,,*O  O*,,,,,,,,,,,,,,,,,,,,,,,,,,,,,,,,,,,,,,*O       ",
"       O*,,*O  O*,,,,,,,,,,,,,,,,,,,,,,,,,,,,,,,,,,,,,1*O       ",
"       o#**#X  X#**-***********-***********-***********#o       ",
"       .oOOX.  .oOOOOOOOoOOOOOOOOOOOoOOOOOOOOOOOoOOOOOOo.       ",
"                                                                ",
"                                                                ",
"                                                                "
};
